<svg xmlns="http://www.w3.org/2000/svg" width="944" height="232" viewBox="0 0 944 232">
<path fill="white" fill-rule="evenodd" d="M 726.18 166.70 C721.56,168.76 718.55,169.30 710.00,169.60 C698.28,170.01 692.51,168.89 684.12,164.59 C673.71,159.26 666.76,150.25 662.10,136.06 C659.13,127.03 659.14,109.96 662.10,100.92 C665.12,91.74 667.24,87.99 672.98,81.71 C682.18,71.65 691.29,68.00 707.21,68.00 C719.49,68.00 727.18,70.35 735.25,76.57 C738.41,79.01 741.23,81.00 741.50,81.00 C741.78,81.00 742.00,70.43 742.00,57.50 L 742.00 34.00 L 751.39 34.00 C759.04,34.00 760.90,34.29 761.39,35.58 C761.73,36.45 762.00,65.87 762.00,100.96 C762.00,154.49 761.77,164.94 760.60,165.92 C759.71,166.66 756.14,166.98 750.85,166.79 L 742.50 166.50 L 742.22 162.50 C741.72,155.58 741.35,155.42 736.42,159.97 C733.91,162.28 729.30,165.31 726.18,166.70 Z M 456.80 199.80 C455.33,201.27 442.23,201.36 439.75,199.92 C438.11,198.97 438.00,194.83 438.00,135.57 C438.00,82.45 438.23,72.06 439.40,71.08 C440.29,70.34 443.86,70.02 449.15,70.21 L 457.50 70.50 L 458.11 81.05 L 462.37 77.55 C470.29,71.06 477.19,68.63 488.93,68.17 C495.05,67.93 501.65,68.27 504.93,68.98 C526.04,73.62 540.00,93.20 540.00,118.16 C540.00,148.69 520.30,170.00 492.10,170.00 C480.53,170.00 467.60,165.52 462.08,159.60 C460.74,158.17 459.28,157.00 458.83,157.00 C458.37,157.00 458.00,166.36 458.00,177.80 C458.00,192.64 457.66,198.94 456.80,199.80 Z M 885.00 167.15 C878.83,169.52 862.54,170.55 855.36,169.02 C848.76,167.62 839.15,162.24 833.95,157.05 C814.97,138.06 814.91,99.46 833.84,80.53 C843.07,71.29 852.02,68.00 867.87,68.00 C880.92,68.00 890.07,71.17 897.75,78.35 C901.26,81.63 901.59,81.30 901.11,74.91 C900.80,70.77 902.89,69.88 912.15,70.21 L 920.50 70.50 L 920.50 166.50 L 912.02,166.79 C902.28,167.13 901.00,166.31 901.00,159.73 L 901.00,155.84 L 895.75,160.44 C892.86,162.97 888.03,165.99 885.00,167.15 Z M 617.46 168.01 C597.96,173.00 578.50,168.63 566.43,156.57 C555.51,145.64 551.16,130.15 553.21,109.50 C554.90,92.49 564.15,78.86 578.74,71.88 C584.76,69.00 586.69,68.59 596.37,68.19 C603.11,67.91 609.37,68.21 612.87,68.99 C633.45,73.56 645.98,90.22 646.34,113.50 L 646.50 123.50 L 572.50 124.50 L 572.78,127.00 C575.82,154.06 606.43,162.60 628.69,142.59 C631.50,140.06 634.19,138.00 634.68,138.00 C635.17,138.00 637.96,140.43 640.89,143.39 L 640.92,143.42 C643.82,146.35 645.31,147.86 645.28,149.35 C645.26,150.92 643.54,152.48 640.00,155.68 C633.05,161.96 625.98,165.83 617.46,168.01 Z M 323.79 158.26 L 323.50 166.50 L 284.95 166.76 L 246.40 167.02 L 243.70 164.21 L 241.00 161.39 L 241.00 100.78 C241.00,67.44 241.28,39.44 241.62,38.54 C243.26,34.28 245.99,34.00 285.99,34.00 L 324.08 34.00 L 323.50 51.50 L 292.23 51.76 L 260.96 52.03 L 261.23 70.76 L 261.50 89.50 L 317.50 90.50 L 317.80,97.84 C317.98,102.39 317.65,105.72 316.92,106.59 C315.97,107.74 310.69,108.00 288.36,108.00 L 260.96 108.00 L 261.50 149.50 L 292.79 149.76 L 324.08 150.03 Z M 159.82 101.74 L 159.50 137.99 L 150.50 146.88 C145.55,151.78 140.94,155.57 140.25,155.31 C139.28,154.94 139.00,147.11 139.00,120.83 C139.00,98.91 138.65,86.95 138.01,87.17 C137.47,87.35 127.61,96.86 116.11,108.30 L 95.19 129.09 L 87.84 128.80 L 80.50 128.50 L 79.95 112.50 L 100.97 91.51 C112.54,79.96 122.00,70.18 122.00,69.77 C122.00,69.36 106.62,68.91 87.83,68.76 C66.15,68.60 53.56,68.13 53.36,67.50 C53.20,66.95 56.79,62.56 61.35,57.75 L 69.64 49.00 L 153.15 49.00 L 155.98 51.83 C159.92,55.76 160.19,59.25 159.82,101.74 Z M 426.73 165.00 C426.53,166.20 424.42,166.56 416.35,166.78 L 406.22 167.07 L 403.30 163.28 C401.70,161.20 398.20,156.35 395.53,152.50 C392.86,148.65 388.44,142.44 385.70,138.69 L 380.73 131.89 L 377.79,134.69 C376.17,136.24 372.26,141.32 369.09,146.00 C365.91,150.68 361.56,157.07 359.41,160.21 L 355.50 165.92 L 345.25 165.96 C339.61,165.98 335.00,165.76 335.00,165.46 C335.00,164.73 349.65,143.87 358.54,131.94 C368.07,119.15 369.70,116.30 368.48,114.54 C364.40,108.66 348.43,86.49 343.75,80.22 C340.59,75.97 338.15,72.05 338.33,71.50 C338.68,70.43 355.11,69.56 358.56,70.43 C359.73,70.72 363.41,74.98 367.02,80.22 C370.54,85.32 375.33,92.11 377.67,95.30 L 381.91,101.10 L 385.03,96.80 C386.74,94.44 391.57,87.42 395.76,81.22 L 403.37,69.93 L 413.43,70.22 C421.95,70.46 423.48,70.75 423.39,72.11 C423.32,72.99 419.27,79.23 414.39,85.98 C401.92,103.18 393.00,115.90 393.00,116.47 C393.00,116.74 400.65,127.43 410.00,140.23 C419.34,153.03 426.88,164.18 426.73,165.00 Z M 481.00 152.57 C486.83,154.19 488.80,154.23 495.20,152.88 C508.77,150.01 516.59,141.28 519.19,126.11 C521.44,112.99 517.23,97.75 509.55,91.26 C507.87,89.84 504.09,87.57 501.15,86.22 C496.48,84.07 494.75,83.82 487.65,84.20 C474.35,84.93 466.98,89.42 461.45,100.16 C456.88,109.06 456.65,127.40 461.01,136.10 C465.26,144.58 471.88,150.04 481.00,152.57 Z M 699.50 151.52 C716.15,158.28 733.84,150.05 739.75,132.81 C746.14,114.14 739.33,93.29 724.79,86.99 C706.90,79.24 687.38,87.33 682.01,104.71 C675.80,124.82 683.32,144.95 699.50,151.52 Z M 862.50 152.66 C871.49,155.64 883.97,152.63 891.73,145.62 C905.29,133.38 905.35,103.77 891.86,91.30 C884.60,84.59 869.81,82.19 859.50,86.05 C845.94,91.12 839.18,103.34 840.27,120.86 C840.92,131.32 843.23,137.82 848.36,143.67 C852.41,148.28 855.83,150.45 862.50,152.66 Z M 801.08 165.75 C801.03,165.89 796.95,166.00 791.99,166.00 L 782.98 166.00 L 783.50 70.50 L 800.50 70.50 L 801.28,82.50 C801.85,91.26 801.67,163.79 801.08,165.75 Z M 573.63 108.21 C573.91,108.66 585.92,108.91 600.32,108.77 L 626.50 108.50 L 626.20,105.00 C625.69,99.20 620.97,90.82 616.50,87.80 C608.75,82.55 595.48,81.67 587.28,85.86 C582.88,88.10 577.43,93.80 575.82,97.86 C574.20,101.91 573.07,107.30 573.63,108.21 Z M 76.51 144.71 L 75.83,152.00 L 67.11,152.00 C61.67,152.00 57.95,151.55 57.20,150.80 C55.59,149.19 55.59,133.81 57.20,132.20 C58.49,130.91 69.71,130.71 74.00,131.89 C77.03,132.73 77.44,134.82 76.51,144.71 Z M 801.50 34.50 L 801.50,52.50 L 782.92,53.08 L 783.50,34.50 Z" />
</svg>