<svg xmlns="http://www.w3.org/2000/svg" width="790" height="300" viewBox="0 0 790 300">
<path fill="white" fill-rule="evenodd" d="M 734.00 190.06 L 734.00,205.00 L 720.00,205.00 L 720.00,119.00 L 724.14,119.00 C727.69,119.00 728.76,119.54 731.53,122.75 C734.62,126.32 734.87,126.42 736.66,124.80 C740.47,121.37 747.35,119.04 753.78,119.02 C764.67,118.98 772.04,123.78 776.82,134.00 C779.03,138.72 779.40,140.92 779.45,149.50 C779.49,157.89 779.13,160.30 777.20,164.50 C774.69,169.95 769.06,176.34 764.80,178.58 C759.00,181.63 742.61,179.68 737.86,175.38 C734.58,172.40 734.00,174.60 734.00,190.06 Z M 31.77 159.84 L 31.50,180.50 L 17.00,181.09 L 17.00,119.00 L 21.36,119.00 C25.32,119.00 25.98,119.37 28.48,122.97 L 31.22,126.93 L 34.36,124.62 C44.73,116.97 59.04,117.12 65.16,124.95 L 67.66,128.14 L 74.55,123.82 C81.13,119.70 81.79,119.50 89.15,119.50 C95.42,119.50 97.38,119.89 99.68,121.60 C106.92,127.01 109.15,136.97 108.77,162.29 L 108.50,180.50 L 93.50,180.50 L 92.98,159.50 C92.69,147.95 92.07,137.70 91.61,136.72 C91.14,135.74 89.95,134.51 88.95,133.97 C86.27,132.54 79.31,132.79 76.13,134.43 C70.66,137.26 70.54,137.78 70.00,159.90 L 69.50,180.50 L 55.50,180.50 L 55.00,159.82 C54.54,140.80 54.33,138.91 52.40,136.32 C50.60,133.91 49.50,133.46 44.74,133.20 C39.72,132.93 38.83,133.21 35.61,136.04 L 32.04,139.17 Z M 297.00 177.97 C290.81,180.56 277.18,181.60 270.73,179.98 C260.88,177.49 253.62,170.90 249.91,161.08 C248.22,156.59 247.89,153.93 248.23,147.50 C249.17,129.89 259.77,119.58 277.00,119.54 C286.63,119.52 292.12,121.21 297.13,125.74 C303.30,131.31 305.29,136.07 305.40,145.50 L 305.50,153.50 L 284.75,153.77 C269.85,153.96 264.65,154.00 263.94,155.81 C263.56,156.77 264.45,158.23 265.83,160.49 L 265.96,160.70 C267.96,163.99 271.40,166.22 276.25,167.38 C280.08,168.30 291.44,166.32 296.15,163.92 C298.30,162.82 300.43,162.15 300.86,162.42 C302.12,163.19 304.29,174.13 303.35,174.94 C302.88,175.34 300.02,176.71 297.00,177.97 Z M 147.41 180.05 C138.79,182.05 131.41,180.71 126.76,176.30 C116.66,166.71 117.99,152.10 129.53,145.77 C134.14,143.25 135.36,143.04 146.25,143.02 L 158.00,143.00 L 158.00,139.52 C158.00,134.12 154.65,132.47 144.04,132.63 C138.91,132.70 133.74,133.41 131.09,134.39 C128.67,135.29 126.49,135.83 126.26,135.59 C125.60,134.94 124.05,127.80 124.02,125.33 C123.98,121.70 132.17,119.53 146.02,119.51 C157.37,119.50 157.62,119.55 162.71,122.82 C166.39,125.18 168.56,127.49 170.19,130.82 C172.40,135.29 172.50,136.52 172.50,158.00 L 172.50,180.50 L 167.30,180.80 C162.39,181.08 162.02,180.93 160.53,178.05 C158.66,174.45 157.84,174.32 154.12,177.07 C152.58,178.21 149.56,179.55 147.41,180.05 Z M 202.78 165.68 L 202.50,180.50 L 195.96,180.79 C192.36,180.95 189.10,180.76 188.71,180.37 C188.32,179.99 188.00,160.82 188.00,137.79 L 188.00,95.91 L 202.50,96.50 L 203.50,147.50 L 214.50,132.79 L 225.50,118.07 L 234.33,118.04 C239.40,118.02 243.02,118.40 242.83,118.94 C242.65,119.45 237.77,125.82 232.00,133.10 C226.23,140.38 221.16,146.91 220.73,147.61 C220.73,147.61 225.50,140.38 221.16,146.91 C220.73,147.61 220.23,148.44 232.99,163.68 C240.15,171.82 245.86,178.93 245.67,179.49 C245.49,180.04 241.70,180.63 237.26,180.79 L 229.18,181.08 L 216.98,166.29 C210.27,158.16 204.39,151.35 203.92,151.18 C203.44,151.00 202.93,157.52 202.78,165.68 Z M 627.99 179.00 C625.33,180.43 614.15,181.17 610.99,180.13 C605.21,178.22 601.91,175.75 599.79,171.73 C597.79,167.93 597.52,165.74 597.18,150.25 L 596.80,133.00 L 592.87,133.00 C588.58,133.00 587.35,131.55 588.41,127.75 C588.75,126.51 593.20,120.55 598.30,114.50 C605.48,105.98 608.13,103.50 610.03,103.50 C612.39,103.50 612.52,103.83 613.00,111.00 L 613.50,118.50 L 621.80,118.79 L 630.09,119.08 L 629.80,125.29 L 629.50,131.50 L 621.25,131.79 L 613.00,132.08 L 613.00,146.93 C613.00,160.08 613.22,162.05 614.92,164.14 C616.62,166.24 617.57,166.48 623.42,166.29 L 630.00,166.08 L 630.00,172.01 C630.00,176.91 629.66,178.11 627.99,179.00 Z M 657.00 163.00 L 656.50,180.50 L 649.38,180.79 C642.69,181.06 642.22,180.94 641.62,178.79 C641.26,177.53 641.18,165.93 641.42,153.00 C641.66,140.07 641.90,127.11 641.93,124.20 L 642.00,118.89 L 646.72,119.20 C651.40,119.50 651.47,119.55 653.29,124.49 C654.31,127.23 655.32,129.66 655.55,129.88 C655.77,130.10 657.80,128.38 660.06,126.06 C665.06,120.90 669.35,119.00 675.97,119.00 L 675.99,119.00 C678.44,119.00 679.83,119.00 680.45,119.69 C681.26,120.59 680.77,122.65 679.66,127.40 L 679.65,127.42 L 678.50,132.35 L 672.72,133.50 C666.10,134.82 662.35,137.26 659.50,142.10 C657.77,145.04 657.43,147.86 657.00,163.00 Z M 704.03 119.00 L 703.50,180.50 L 689.00,181.09 L 689.00,119.00 Z M 744.51 166.81 C756.57,169.47 764.11,163.14 764.27,150.23 C764.37,142.58 762.79,138.69 757.96,134.62 C752.03,129.63 740.87,131.69 736.34,138.60 C735.08,140.52 734.47,143.88 734.20,150.40 L 733.82,159.50 L 737.17,162.72 C739.05,164.52 742.28,166.32 744.51,166.81 Z M 529.94 270.39 C524.18,271.80 514.40,271.99 450.44,271.91 C447.79,271.91 445.23,271.90 442.76,271.90 C384.25,271.84 374.68,271.82 366.51,268.45 C364.57,267.64 362.70,266.65 360.28,265.42 C347.50,258.94 337.59,247.13 332.90,232.83 L 330.50,225.50 L 330.50,73.50 L 332.84,67.00 C338.19,52.13 347.59,41.23 360.50,34.97 C364.90,32.83 370.75,30.60 373.51,30.01 C376.88,29.29 403.28,29.03 454.51,29.22 L 530.50,29.50 L 536.50,31.95 C551.62,38.13 560.63,46.21 566.89,59.19 C569.18,63.94 571.35,70.28 571.94,74.00 C573.40,83.09 573.37,220.09 571.91,227.20 C571.31,230.12 569.06,236.19 566.91,240.70 C559.93,255.32 546.12,266.40 529.94,270.39 Z M 493.56 248.92 C500.27,254.81 508.87,251.89 507.60,244.15 C507.26,242.14 506.72,235.99 506.38,230.47 C505.83,221.60 506.07,219.22 508.45,209.97 C511.63,197.59 513.69,191.21 517.86,180.80 C521.59,171.49 537.62,139.21 547.10,121.93 C553.93,109.50 555.13,105.53 552.80,103.20 C551.01,101.41 544.52,101.75 542.14,103.75 C540.40,105.22 528.87,124.91 512.61,154.19 C506.19,165.75 499.03,170.03 495.39,164.47 C491.86,159.09 496.08,141.03 506.12,118.57 C508.80,112.55 511.00,106.13 511.00,104.30 C511.00,101.46 510.47,100.71 507.43,99.26 C504.01,97.63 503.70,97.65 500.18,99.53 C496.95,101.26 495.33,103.77 486.97,120.00 C474.29,144.59 457.49,170.04 454.97,168.48 C454.51,168.20 454.35,166.28 454.62,164.23 C456.01,153.47 458.50,140.24 461.09,129.81 C462.69,123.38 464.00,116.81 464.00,115.21 C464.00,108.73 455.22,106.22 449.32,111.02 C445.64,114.02 437.15,125.26 426.19,141.67 C421.72,148.36 417.60,154.13 417.03,154.48 C415.42,155.48 415.80,150.95 417.89,144.42 C426.45,117.55 429.00,108.90 429.00,106.68 C429.00,101.63 420.54,99.04 416.15,102.75 C414.21,104.38 409.12,111.13 391.53,135.39 C387.70,140.68 384.15,145.00 383.64,145.00 C382.50,145.00 383.46,135.09 385.58,124.99 C387.91,113.86 387.95,103.73 385.68,101.20 C381.52,96.59 373.35,97.80 366.58,104.04 C361.98,108.27 355.00,120.70 355.00,124.65 C355.00,127.25 359.03,132.00 361.23,132.00 C363.61,132.00 366.99,128.94 369.03,124.93 C370.98,121.12 374.00,119.57 374.00,122.39 C374.00,123.16 371.92,132.49 369.39,143.14 C361.96,174.33 361.01,178.37 360.45,181.00 C359.75,184.33 363.20,189.76 366.56,190.60 C370.55,191.61 373.70,188.58 380.84,176.90 C390.05,161.82 400.95,146.85 402.17,147.61 C402.79,147.99 402.97,149.75 402.60,151.88 C396.98,184.92 397.37,189.94 405.53,189.98 C409.41,190.00 412.54,187.78 415.87,182.62 C417.33,180.35 422.36,173.32 427.05,167.00 C431.73,160.68 436.68,153.82 438.03,151.76 C439.39,149.70 440.90,148.01 441.39,148.01 C441.88,148.00 442.00,151.22 441.65,155.25 C439.72,177.71 439.76,183.35 441.90,186.72 C445.29,192.08 451.09,192.32 457.00,187.34 C458.74,185.88 463.92,179.63 468.53,173.44 C473.13,167.25 477.31,161.93 477.82,161.61 C478.33,161.29 478.95,164.28 479.21,168.41 C479.76,176.90 481.86,181.30 487.05,184.84 C489.89,186.77 491.35,187.09 495.25,186.64 C500.75,186.01 500.98,186.53 498.15,193.17 C491.75,208.16 488.00,222.88 488.01,232.93 C488.01,240.97 489.55,245.40 493.56,248.92 Z" />
</svg>