<svg xmlns="http://www.w3.org/2000/svg" width="970" height="310" viewBox="0 0 970 310">
<path fill="white" fill-rule="evenodd" d="
  M 260.00 241.00 L 260.00 250.00 L 253.00 250.00 L 253.00 210.00 L 263.58 210.00 C 273.93 210.00 274.21 210.06 277.08 212.92 C 280.89 216.74 281.03 221.62 277.46 225.87 C 276.06 227.53 274.03 229.17 272.96 229.51 C 271.88 229.86 271.00 230.60 271.00 231.18 C 271.00 231.75 273.94 236.22 277.53 241.11 L 284.05 250.00 L 274.50 249.97 L 268.62 240.98 C 265.39 236.04 262.13 232.00 261.37 232.00 C 260.31 232.00 260.00 234.04 260.00 241.00 Z
  M 260.67 228.33 C 261.67 229.34 265.88 229.13 268.06 227.97 C 270.76 226.52 273.28 221.23 272.58 218.46 C 271.61 214.61 269.21 213.00 264.43 213.00 L 260.00 213.00 L 260.00 220.33 C 260.00 224.37 260.30 227.97 260.67 228.33 Z
  M 220.91 231.74 L 228.69 249.82 L 224.76 250.19 C 220.46 250.60 219.62 249.69 217.06 241.75 L 215.84 238.00 L 200.30 238.00 L 197.92 244.00 C 195.98 248.87 195.11 250.00 193.27 250.00 C 192.02 250.00 191.00 249.81 191.00 249.57 C 191.00 249.34 194.53 241.13 198.85 231.32 C 203.17 221.52 206.98 212.71 207.32 211.75 C 208.14 209.43 212.05 209.48 212.67 211.83 C 212.93 212.83 216.64 221.79 220.91 231.74 Z
  M 204.75 234.18 C 208.22 234.58 213.00 233.98 213.00 233.14 C 213.00 232.35 209.04 221.88 208.28 220.65 C 207.86 219.97 202.00 231.98 202.00 233.53 C 202.00 233.72 203.24 234.01 204.75 234.18 Z
  M 378.50 85.50 L 377.98 184.00 L 356.00 184.00 L 356.00 85.00 L 324.00 85.00 L 324.00 65.00 L 411.23 65.00 L 410.50 84.50 Z
  M 345.34 244.00 C 343.64 248.55 342.84 249.55 340.65 249.82 L 338.01 250.13 L 339.88 245.82 C 340.91 243.44 343.09 238.57 344.73 235.00 C 346.36 231.43 349.45 224.34 351.58 219.25 C 356.51 207.53 358.34 207.00 361.89 216.26 C 363.20 219.69 366.91 228.48 370.14 235.78 C 373.36 243.09 376.00 249.30 376.00 249.59 C 376.00 249.88 374.11 249.98 371.81 249.81 C 367.74 249.51 367.54 249.33 365.41 244.01 C 363.85 240.11 362.53 238.33 360.86 237.86 C 357.58 236.94 349.72 236.88 348.45 237.77 C 347.87 238.17 346.47 240.98 345.34 244.00 Z
  M 352.75 234.18 C 355.31 234.48 361.00 234.05 361.00 233.56 C 361.00 232.37 356.00 221.50 355.36 221.29 C 354.56 221.02 350.00 230.95 350.00 232.96 C 350.00 233.46 351.24 234.01 352.75 234.18 Z
  M 393.00 233.17 L 393.00 250.00 L 385.00 250.00 L 385.00 241.20 C 385.00 236.36 384.60 231.97 384.10 231.45 C 383.61 230.93 380.49 225.89 377.16 220.25 L 371.11 210.00 L 380.55 210.00 L 385.27 219.50 C 387.86 224.73 390.37 229.00 390.85 229.00 C 391.32 229.00 393.83 224.73 396.42 219.50 C 400.44 211.40 401.50 210.00 403.57 210.00 C 404.91 210.00 406.00 210.25 406.00 210.57 C 406.00 210.88 403.08 216.09 399.50 222.15 Z
  M 429.09 248.72 C 425.15 251.37 417.43 251.76 412.37 249.56 C 409.76 248.42 409.32 247.77 409.74 245.60 C 410.01 244.17 410.46 243.00 410.73 243.00 C 411.01 243.00 412.77 244.35 414.65 246.00 C 418.67 249.52 421.73 249.79 425.37 246.93 C 427.38 245.34 428.00 243.97 428.00 241.08 C 428.00 236.63 426.42 234.99 419.71 232.49 C 410.09 228.89 406.99 220.40 412.90 213.79 C 415.59 210.77 416.29 210.53 423.15 210.23 C 431.71 209.87 433.39 210.60 432.45 214.33 L 431.79 216.96 L 429.98 214.73 C 427.54 211.72 419.55 211.53 417.42 214.44 C 413.94 219.20 416.57 223.37 424.96 226.39 C 436.54 230.55 438.70 242.24 429.09 248.72 Z
  M 816.33 230.56 C 813.48 232.46 810.46 234.27 809.60 234.60 C 808.54 235.01 805.55 232.67 800.27 227.30 C 791.77 218.66 787.59 213.28 773.72 193.08 C 768.65 185.70 763.73 179.19 762.80 178.62 C 761.57 177.86 758.78 178.05 752.80 179.29 C 743.38 181.24 743.00 181.28 743.01 180.25 C 743.02 179.84 744.82 178.64 747.03 177.58 C 753.00 174.72 762.17 165.94 765.42 159.97 C 767.50 156.15 768.42 152.84 768.77 147.95 C 769.32 140.28 768.25 128.00 767.03 128.00 C 766.58 128.00 765.53 129.69 764.69 131.75 C 763.85 133.81 762.52 136.35 761.74 137.40 C 760.45 139.11 760.26 138.63 759.73 132.35 C 759.15 125.36 756.52 117.00 754.91 117.00 C 754.43 117.00 753.76 118.24 753.43 119.75 C 752.11 125.67 751.56 126.59 746.36 131.50 C 740.19 137.34 739.45 140.00 744.00 140.00 C 745.65 140.00 747.00 140.22 747.00 140.49 C 747.00 142.63 740.74 158.53 736.37 167.50 C 727.67 185.36 721.60 192.00 713.98 192.00 C 711.08 192.00 709.60 191.16 705.99 187.49 L 701.57 182.99 L 705.29 179.38 C 708.68 176.09 709.90 174.00 708.43 174.00 C 708.11 174.00 705.92 175.13 703.56 176.52 C 699.42 178.95 699.19 178.97 697.12 177.27 L 694.98 175.50 L 698.24 170.28 C 716.34 141.29 749.68 107.79 784.50 83.61 C 826.02 54.78 857.97 36.37 887.28 24.38 C 907.69 16.04 913.35 17.51 895.46 26.51 C 873.06 37.78 847.76 52.19 826.88 65.57 C 823.18 67.95 817.84 71.06 815.02 72.49 C 800.64 79.78 772.61 98.04 774.72 98.74 C 775.33 98.94 781.61 95.64 788.66 91.39 C 817.85 73.84 852.17 59.26 897.50 45.15 C 914.57 39.84 915.64 39.61 916.51 41.01 C 917.74 43.00 915.11 44.41 898.00 50.98 C 867.75 62.58 822.47 83.00 814.49 88.63 C 812.85 89.79 809.11 91.95 806.18 93.42 C 799.05 97.02 791.00 102.88 791.00 104.49 C 791.00 105.48 795.21 105.95 808.75 106.47 C 818.51 106.84 827.32 107.38 828.32 107.67 C 830.09 108.16 830.09 108.25 828.32 110.20 C 824.83 114.06 818.84 116.31 810.75 116.79 C 806.49 117.05 803.00 117.68 803.00 118.19 C 803.00 122.45 816.17 132.41 827.50 136.73 C 834.92 139.55 845.24 142.17 854.25 143.53 C 857.94 144.08 858.00 144.16 858.00 148.55 C 858.00 151.00 857.66 153.01 857.25 153.02 C 856.84 153.02 845.70 153.69 832.50 154.50 C 807.28 156.03 801.00 156.75 801.00 158.06 C 801.00 159.59 811.68 160.90 834.33 162.15 L 857.17 163.40 L 856.49 167.95 C 856.12 170.45 855.73 172.58 855.64 172.69 C 855.54 172.79 844.75 173.58 831.65 174.44 C 805.66 176.14 800.00 176.80 800.00 178.13 C 800.00 178.61 800.16 179.00 800.36 179.00 C 800.56 179.00 803.03 179.44 805.84 179.97 C 808.65 180.50 820.07 181.44 831.22 182.06 C 842.37 182.67 851.62 183.30 851.78 183.45 C 851.93 183.60 851.16 185.79 850.07 188.33 C 848.70 191.53 847.39 193.07 845.80 193.38 C 844.53 193.62 835.51 194.33 825.75 194.94 C 807.97 196.06 805.00 196.51 805.00 198.04 C 805.00 199.00 811.49 199.88 829.81 201.40 L 843.11 202.50 L 834.90 213.50 L 824.81 214.70 C 819.26 215.36 814.01 216.17 813.14 216.50 C 810.39 217.56 813.83 218.86 821.31 219.60 L 828.13 220.27 L 824.81 223.70 C 822.99 225.58 819.17 228.67 816.33 230.56 Z
  M 303.91 245.75 C 302.91 249.21 302.24 250.00 300.31 250.00 C 299.01 250.00 297.74 249.44 297.49 248.75 C 297.24 248.06 294.38 239.85 291.13 230.50 C 287.88 221.15 284.90 212.71 284.50 211.75 C 283.88 210.23 284.40 210.00 288.39 210.00 C 291.34 210.00 293.00 210.44 293.00 211.21 C 293.00 213.32 301.08 237.93 301.95 238.47 C 302.41 238.75 304.93 232.46 307.55 224.49 C 312.10 210.67 312.45 210.00 314.98 210.00 C 317.42 210.00 317.82 210.62 319.97 217.75 C 323.77 230.35 327.23 239.18 328.01 238.31 C 328.41 237.87 330.20 233.00 331.98 227.50 C 337.23 211.31 337.58 210.53 339.88 210.18 C 341.05 210.00 342.00 210.09 342.00 210.36 C 342.00 210.64 340.61 214.61 338.92 219.18 C 337.23 223.76 334.35 231.77 332.52 237.00 C 328.94 247.25 328.22 249.42 326.90 249.88 C 326.54 250.00 326.14 250.00 325.63 250.00 C 325.58 250.00 325.53 250.00 325.47 250.00 C 323.57 250.00 322.86 249.08 321.46 244.75 C 316.93 230.74 313.68 222.00 312.99 222.00 C 312.23 222.00 306.29 237.55 303.91 245.75 Z
  M 242.00 210.00 L 242.00 250.00 L 238.25 250.00 L 234.50 250.00 L 234.50 210.00 L 238.25 210.00 Z
" />
</svg>