<svg xmlns="http://www.w3.org/2000/svg" width="950" height="212" viewBox="0 0 950 212">
<g>
<path d="M 615.42 147.60 C608.34,151.75 596.15,151.80 588.35,147.70 C584.34,145.60 578.50,138.80 575.72,133.00 C573.94,129.29 573.56,126.65 573.53,118.00 C573.51,108.29 573.72,107.11 576.36,102.34 C577.93,99.50 580.63,95.86 582.36,94.25 C591.69,85.55 609.13,84.45 618.69,91.97 C622.18,94.72 623.00,94.53 623.00,91.00 L 623.00 88.00 L 640.03 88.00 L 639.50 149.50 L 624.06 150.08 L 623.45 147.29 C622.23,141.74 621.96,141.32 620.89,143.23 C620.36,144.18 617.90,146.15 615.42,147.60 ZM 152.49 149.97 C145.88,153.75 139.36,157.10 137.99,157.42 C135.02,158.11 131.20,156.43 117.06,148.16 C110.90,144.57 104.89,141.81 102.39,141.43 C96.79,140.59 68.31,145.02 53.89,148.98 C50.26,149.98 46.83,150.50 46.28,150.15 C43.14,148.12 40.65,137.95 42.95,136.53 C43.47,136.21 47.19,135.11 51.20,134.09 C101.89,121.24 164.18,120.82 216.72,132.97 C223.63,134.57 229.71,136.31 230.24,136.84 C231.61,138.21 230.18,145.56 228.02,148.23 C226.28,150.37 225.99,150.41 220.36,149.16 C201.57,145.00 195.95,143.92 185.38,142.46 C170.57,140.41 168.26,140.94 152.49,149.97 ZM 840.86 147.47 C836.82,149.31 832.98,150.17 827.36,150.48 C810.35,151.41 799.49,145.79 792.75,132.56 C787.07,121.40 788.99,107.23 797.54,97.11 C799.12,95.25 803.57,92.21 807.43,90.36 C813.81,87.30 815.27,87.00 823.56,87.00 C831.76,87.00 833.31,87.31 838.90,90.11 C849.52,95.41 856.60,107.19 855.81,118.21 L 855.50 122.50 L 830.75 122.77 C812.62,122.96 806.82,122.96 806.20,124.75 C805.91,125.59 806.74,126.81 807.97,128.62 C808.06,128.75 808.16,128.89 808.25,129.03 C813.84,137.29 826.24,139.43 837.01,133.99 L 842.97 130.99 L 847.97 133.74 C850.72,135.26 852.98,136.97 852.99,137.55 C853.01,139.56 846.48,144.90 840.86,147.47 ZM 310.60 147.70 C306.75,149.65 303.70,150.33 297.54,150.59 C285.78,151.08 278.22,148.64 270.48,141.85 C267.44,139.18 264.00,134.28 264.00,132.62 C264.00,131.78 275.71,125.00 277.15,125.00 C277.92,125.00 279.35,126.49 280.33,128.32 C286.35,139.50 308.00,137.75 308.00,126.09 C308.00,120.88 305.18,118.60 293.87,114.61 C282.40,110.56 279.08,108.89 274.45,104.83 C269.23,100.24 267.00,95.20 267.00,88.01 C267.00,77.67 271.19,71.04 280.51,66.62 C285.22,64.40 287.41,64.00 295.06,64.00 C302.60,64.00 304.84,64.39 308.82,66.41 C313.96,69.01 322.00,77.00 322.00,79.49 C322.00,80.78 312.27,88.00 310.53,88.00 C310.22,88.00 308.03,85.97 305.65,83.50 C301.45,79.11 301.19,79.00 295.13,79.00 C289.86,79.00 288.53,79.37 286.45,81.45 C283.41,84.50 283.20,89.71 285.96,93.23 C287.24,94.85 291.50,97.05 298.21,99.54 C308.54,103.37 317.02,108.04 320.21,111.64 C324.62,116.62 326.13,125.40 323.93,133.32 C322.52,138.39 316.80,144.56 310.60,147.70 ZM 389.10 149.86 C382.08,152.21 373.44,150.48 368.11,145.66 C366.79,144.47 364.09,141.02 362.10,138.00 C360.11,134.98 356.91,130.25 354.99,127.50 L 351.50 122.50 L 350.50 149.50 L 334.50 149.50 L 334.24 105.71 L 333.98 61.92 L 342.24 62.21 L 350.50 62.50 L 350.77 86.25 C350.92,99.76 351.43,110.00 351.95,110.00 C352.46,110.00 356.38,105.07 360.68,99.05 L 368.50 88.09 L 377.75 88.05 C383.68,88.02 387.00,88.38 387.00,89.07 C387.00,89.66 382.50,95.68 377.00,102.45 C371.50,109.22 367.00,115.10 367.00,115.50 C367.00,116.97 374.37,128.58 377.27,131.67 C381.03,135.68 384.02,136.43 388.61,134.52 C390.61,133.68 392.41,133.00 392.61,133.00 C393.35,133.00 398.00,141.01 398.00,142.29 C398.00,144.29 392.96,148.57 389.10,149.86 ZM 667.80 148.80 C667.11,149.49 663.78,150.00 659.91,150.00 C654.73,150.00 653.08,149.64 652.61,148.42 C652.27,147.55 652.00,133.58 652.00,117.38 L 652.00 87.92 L 668.50 88.50 L 669.01 92.00 C669.34,94.34 669.79,95.07 670.34,94.21 C670.80,93.50 673.04,91.70 675.33,90.21 C679.08,87.77 680.40,87.50 688.54,87.50 C697.22,87.50 697.74,87.63 701.66,90.73 C704.17,92.72 706.64,95.99 708.10,99.23 C710.35,104.26 710.46,105.54 710.48,127.00 L 710.50 149.50 L 703.09 149.80 C697.83,150.01 695.44,149.72 694.85,148.80 C694.40,148.08 693.99,139.18 693.94,129.00 C693.84,108.92 692.98,104.34 688.92,102.26 C685.00,100.26 677.67,100.69 674.61,103.09 C669.77,106.90 669.00,110.58 669.00,129.92 C669.00,142.34 668.64,147.96 667.80,148.80 ZM 423.66 170.25 L 420.11 178.00 L 413.16 178.00 C408.33,178.00 406.06,177.60 405.71,176.68 C405.43,175.95 408.12,168.56 411.69,160.24 L 418.18 145.13 L 411.49 130.31 C407.81,122.17 402.14,109.80 398.90,102.83 C395.65,95.87 393.00,89.68 393.00,89.08 C393.00,88.39 396.14,88.00 401.77,88.00 L 410.54 88.00 L 415.23 99.84 C417.81,106.35 421.12,114.90 422.58,118.84 C424.04,122.78 425.59,126.00 426.03,126.00 C426.47,126.00 428.06,122.74 429.56,118.75 C431.06,114.76 433.75,107.90 435.52,103.50 C437.30,99.10 439.30,93.81 439.96,91.75 L 441.16 88.00 L 450.08 88.00 C454.98,88.00 459.00,88.42 459.00,88.93 C459.00,89.44 457.37,93.37 455.38,97.68 C453.39,101.98 451.42,106.40 451.00,107.50 C449.73,110.83 427.45,161.95 423.66,170.25 ZM 739.00 130.00 L 738.50 149.50 L 730.87 149.79 C724.58,150.03 723.14,149.79 722.62,148.46 C722.28,147.57 722.00,133.60 722.00,117.42 L 722.00 88.00 L 739.00 88.00 L 739.00 91.50 C739.00,95.52 739.90,95.87 742.60,92.89 C746.13,88.99 751.49,87.00 758.49,87.00 C769.09,87.00 774.92,90.75 778.67,100.00 C780.25,103.90 780.50,107.52 780.50,127.00 L 780.50 149.50 L 765.50 149.50 L 764.96 130.00 C764.33,107.50 763.52,104.42 757.51,101.57 C751.38,98.66 744.69,101.01 741.27,107.26 C739.81,109.94 739.41,113.88 739.00,130.00 ZM 563.21 146.81 C558.47,149.33 555.65,150.10 549.85,150.46 C533.83,151.44 522.46,145.88 515.97,133.90 C512.74,127.94 512.50,126.88 512.50,118.50 C512.50,110.16 512.75,109.04 515.90,103.22 C518.19,99.01 520.89,95.79 524.09,93.43 C531.46,88.02 536.49,86.70 547.81,87.20 C556.27,87.57 558.29,88.03 563.75,90.83 C567.19,92.59 570.00,94.36 569.99,94.76 C569.99,95.17 568.61,97.89 566.94,100.80 C563.71,106.43 562.45,106.78 557.53,103.37 C556.28,102.50 552.78,102.01 548.03,102.02 C542.09,102.03 539.68,102.50 536.60,104.27 C525.99,110.35 526.52,127.68 537.50,133.41 C543.10,136.34 552.94,136.22 558.78,133.17 C561.14,131.93 563.47,131.17 563.95,131.47 C565.49,132.42 570.09,141.33 569.64,142.49 C569.41,143.11 566.51,145.05 563.21,146.81 ZM 495.78 148.47 C490.97,150.40 480.15,151.26 475.00,150.13 C470.04,149.04 466.02,146.71 462.17,142.70 C457.71,138.06 458.19,135.59 464.21,132.19 L 468.91 129.52 L 472.21 132.64 C478.68,138.77 484.83,139.79 489.69,135.56 C493.75,132.03 492.32,130.44 479.27,124.00 C463.17,116.05 460.43,112.91 461.23,103.29 C461.76,96.85 464.05,93.41 470.02,90.07 C475.90,86.79 488.05,85.98 494.49,88.44 C498.98,90.16 504.00,94.97 504.00,97.56 C504.00,98.33 501.64,100.31 498.76,101.95 L 493.53 104.94 L 491.44 102.32 C489.77,100.23 488.44,99.68 484.83,99.60 C479.66,99.49 477.00,101.19 477.00,104.60 C477.00,107.53 479.17,108.95 489.95,113.07 C500.36,117.05 505.69,121.64 507.07,127.82 C508.98,136.31 504.16,145.12 495.78,148.47 ZM 882.00 130.50 L 881.50 149.50 L 873.87 149.79 C867.58,150.03 866.14,149.79 865.62,148.46 C865.28,147.57 865.00,133.60 865.00,117.42 L 865.00 88.00 L 880.90 88.00 L 881.20 93.64 L 881.50 99.28 L 884.00 95.42 C887.68,89.75 892.31,87.00 898.19,87.00 L 903.08 87.00 L 902.50 102.50 L 896.00 103.07 C883.20,104.19 882.66,105.25 882.00,130.50 ZM 600.46 136.17 C610.19,140.71 621.34,133.78 623.52,121.83 C624.39,117.09 621.80,108.08 618.78,105.32 C614.66,101.55 609.95,99.75 605.54,100.24 C599.05,100.97 594.15,103.79 591.98,108.05 C586.32,119.14 589.98,131.28 600.46,136.17 ZM 95.02 111.24 C91.32,115.95 88.00,115.50 76.88,108.78 C72.82,106.33 65.57,102.15 60.76,99.48 C55.95,96.81 51.78,93.87 51.48,92.95 C50.43,89.64 56.26,80.00 59.31,80.00 C59.82,80.00 65.47,83.07 71.87,86.83 C78.27,90.59 86.09,95.12 89.26,96.91 C97.34,101.46 99.16,105.99 95.02,111.24 ZM 200.37 106.33 C192.05,111.10 184.85,114.96 184.37,114.92 C179.84,114.51 176.00,110.41 176.00,105.98 C176.00,101.53 176.38,101.19 190.50,92.84 C209.67,81.52 210.97,80.86 213.75,81.19 C217.00,81.57 221.00,87.03 221.00,91.08 C221.00,94.43 220.48,94.81 200.37,106.33 ZM 114.69 91.83 C111.35,94.96 106.41,94.71 103.29,91.25 C100.77,88.47 90.15,70.79 85.32,61.37 C83.88,58.54 82.97,55.52 83.30,54.66 C84.16,52.42 91.68,48.83 94.75,49.19 C96.95,49.45 98.83,52.05 107.17,66.33 C117.89,84.67 118.84,87.92 114.69,91.83 ZM 142.07 84.42 C138.59,88.13 133.96,87.93 130.59,83.92 L 128.00 80.85 L 128.00 40.32 L 130.55 39.16 C133.93,37.62 140.19,37.68 142.37,39.28 C143.92,40.42 144.14,42.83 144.30,61.20 C144.49,81.78 144.48,81.86 142.07,84.42 ZM 168.75 92.25 C165.92,94.76 160.81,94.49 158.17,91.69 C154.22,87.48 155.19,84.19 165.75,65.92 C175.03,49.86 175.65,49.05 178.60,49.03 C181.80,49.00 190.00,54.07 190.00,56.08 C190.00,57.83 170.90,90.35 168.75,92.25 ZM 807.48 111.97 C808.36,113.39 837.66,113.36 838.54,111.94 C839.86,109.80 836.68,104.90 832.32,102.34 C828.58,100.15 827.03,99.83 821.95,100.20 C818.03,100.48 815.03,101.33 813.24,102.67 C809.95,105.12 806.60,110.54 807.48,111.97 Z" fill="white"/>
<path d="M 880.95 89.02 L 882.02 94.33 L 884.26 92.37 C886.53,90.39 889.67,88.79 892.88,87.86 C889.42,89.08 886.49,91.58 884.00,95.42 L 881.50 99.28 L 881.20 93.64 Z" fill="rgba(255,255,255,0.3)"/>
<path d="M 807.48 111.97 C808.36,113.39 837.66,113.36 838.54,111.94 C839.86,109.80 836.68,104.90 832.32,102.34 C828.58,100.15 827.03,99.83 821.95,100.20 C818.03,100.48 815.03,101.33 813.24,102.67 C809.95,105.12 806.60,110.54 807.48,111.97 Z" fill="white"/>
</g>
</svg>