<svg xmlns="http://www.w3.org/2000/svg" width="1112" height="260" viewBox="0 0 1112 260">
<path fill="white" fill-rule="evenodd" d="M 142.23 176.74 L 139.95,174.60 L 132.65,181.85 L 125.35,189.10 L 118.88,181.89 L 112.41,174.69 L 107.08,178.35 C100.01,183.22 92.27,185.51 83.00,185.47 C69.72,185.43 57.81,179.71 49.40,169.34 C43.00,161.46 40.67,154.42 40.67,143.00 C40.67,131.51 43.01,124.52 49.52,116.53 L 53.83,111.24 L 47.45,104.25 C43.94,100.40 41.36,96.98 41.70,96.63 C42.05,96.28 48.67,96.01 56.42,96.01 L 70.50,96.02 L 81.50,90.47 C96.85,82.73 108.22,80.00 125.17,80.00 C144.56,80.00 160.31,84.00 174.43,92.50 L 180.24,96.00 L 195.12,96.00 C203.30,96.00 210.00,96.38 210.00,96.86 C210.00,97.33 207.24,100.72 203.87,104.40 L 197.74,111.09 L 200.93,115.06 C202.68,117.25 205.56,122.06 207.31,125.77 C210.27,132.01 210.50,133.27 210.50,143.00 C210.50,152.75 210.27,153.99 207.28,160.29 C198.79,178.23 179.53,188.74 161.76,185.13 C154.45,183.65 145.47,179.79 142.23,176.74 Z M 692.53 184.45 C676.94,188.51 660.45,183.59 649.18,171.52 C635.36,156.71 632.43,137.48 641.29,119.72 C652.12,97.99 680.29,88.88 702.30,99.98 L 708.00,102.86 L 708.00,65.00 L 731.00,65.00 L 731.00,184.00 L 708.00,184.00 L 708.00,181.00 C708.00,179.35 707.83,178.00 707.63,178.00 C707.42,178.00 705.28,179.10 702.87,180.45 C700.46,181.80 695.81,183.60 692.53,184.45 Z M 451.00 194.00 L 451.00,210.00 L 429.00,210.00 L 429.00,97.00 L 451.00,97.00 L 451.00,100.00 C451.00,101.65 451.15,103.00 451.34,103.00 C451.53,103.00 454.37,101.66 457.65,100.02 C465.94,95.87 476.61,94.31 486.02,95.87 C495.90,97.50 503.20,101.20 510.04,108.04 C528.43,126.43 527.92,155.83 508.89,173.44 C501.90,179.91 497.77,182.23 489.30,184.42 C478.45,187.23 466.67,185.78 457.13,180.45 C454.72,179.10 452.35,178.00 451.87,178.00 C451.39,178.00 451.00,185.20 451.00,194.00 Z M 587.95 184.53 C577.52,187.30 564.54,185.44 554.90,179.79 C548.17,175.84 539.35,165.98 535.84,158.46 C529.99,145.97 530.86,130.09 538.08,117.40 C549.35,97.58 577.87,89.20 597.61,99.89 C603.32,102.98 604.00,102.92 604.00,99.33 C604.00,97.02 604.12,97.00 615.50,97.00 L 627.00,97.00 L 627.00,184.00 L 604.00,184.00 L 604.00,181.00 C604.00,179.35 603.82,178.00 603.59,178.00 C603.37,178.00 600.98,179.14 598.29,180.54 C595.60,181.93 590.95,183.73 587.95,184.53 Z M 1001.91 184.46 C998.39,185.29 993.25,185.95 990.50,185.92 C974.06,185.75 957.47,174.94 949.96,159.50 C946.67,152.74 946.56,152.09 946.53,140.45 C946.50,128.52 946.54,128.33 950.25,120.81 C954.31,112.59 962.77,103.69 970.05,99.98 C979.22,95.30 992.30,93.89 1002.31,96.49 C1025.09,102.43 1038.42,122.09 1035.87,145.99 C1033.93,164.11 1019.67,180.27 1001.91,184.46 Z M 311.50 85.50 L 310.98,184.00 L 289.00,184.00 L 289.00,85.00 L 257.00,85.00 L 257.00,65.00 L 344.23,65.00 L 343.50,84.50 Z M 917.18 184.03 C915.15,184.63 909.90,185.34 905.50,185.60 C898.87,186.00 896.37,185.68 890.88,183.76 C877.82,179.18 869.19,169.09 869.04,158.25 L 869.00,155.00 L 880.00,155.00 C890.97,155.00 891.00,155.01 891.00,157.42 C891.00,160.78 895.36,165.63 899.64,167.04 C911.14,170.84 922.20,160.11 914.61,152.52 C912.46,150.37 897.77,145.02 893.95,144.99 C891.90,144.98 882.71,140.58 878.96,137.82 C874.94,134.86 871.29,128.67 870.44,123.35 C869.06,114.70 875.09,104.01 883.85,99.58 C899.10,91.88 922.29,94.82 930.43,105.49 C933.38,109.37 936.00,116.01 936.00,119.63 C936.00,121.97 935.88,122.00 925.62,122.00 L 915.25,122.00 L 914.65,119.00 C913.74,114.45 908.82,111.79 902.24,112.28 C894.18,112.87 890.12,117.62 893.03,123.06 C894.51,125.82 898.02,127.37 910.86,130.92 C924.60,134.73 928.55,136.65 933.21,141.81 C944.94,154.80 935.95,178.49 917.18,184.03 Z M 800.69 171.75 L 796.51,184.00 L 769.20,184.00 L 768.00,180.75 C767.35,178.96 764.65,171.20 762.02,163.50 C759.39,155.80 754.66,142.07 751.52,133.00 C743.69,110.41 740.00,99.19 740.00,98.00 C740.00,97.39 744.48,97.00 751.45,97.00 L 762.91,97.00 L 765.84,106.25 C767.46,111.34 771.83,125.30 775.56,137.28 C779.29,149.26 782.65,158.71 783.03,158.28 C783.75,157.46 785.78,151.31 793.49,126.50 C796.05,118.25 799.17,108.35 800.41,104.50 L 802.66,97.50 L 814.33,97.22 C820.84,97.06 826.00,97.34 826.00,97.84 C826.00,98.34 825.28,100.72 824.41,103.12 C822.73,107.74 807.79,150.95 800.69,171.75 Z M 159.20 170.11 C165.73,172.36 170.12,172.45 176.77,170.47 C183.75,168.40 189.68,163.60 193.40,157.00 C196.19,152.04 196.50,150.66 196.50,143.00 C196.50,135.34 196.19,133.96 193.40,129.00 C187.83,119.14 176.46,113.07 165.88,114.33 C159.52,115.08 150.60,119.55 146.79,123.89 C141.33,130.11 139.71,135.21 140.20,144.60 C140.57,151.57 141.10,153.62 143.57,157.59 C147.33,163.63 152.53,167.80 159.20,170.11 Z M 74.20 170.17 C87.33,174.85 102.00,168.63 108.75,155.50 C110.83,151.47 111.33,149.05 111.36,143.00 C111.40,134.69 109.61,130.04 103.83,123.46 C93.59,111.80 73.66,111.48 62.73,122.81 C47.58,138.52 53.45,162.76 74.20,170.17 Z M 1070.00 184.00 L 1047.00,184.00 L 1047.00,97.00 L 1070.00,97.00 L 1070.13,108.50 L 1071.65,105.50 C1072.49,103.85 1074.78,101.26 1076.75,99.75 C1080.03,97.23 1081.05,97.00 1089.20,97.00 L 1098.07,97.00 L 1097.79,107.25 L 1097.50,117.50 L 1087.50,118.00 C1080.79,118.34 1076.65,118.50 1074.10,120.59 C1070.00,123.96 1070.00,132.32 1070.00,154.45 L 1070.00,184.00 Z M 355.00 156.47 L 355.00,184.00 L 333.00,184.00 L 333.00,97.00 L 354.90,97.00 L 355.22,102.75 C355.50,107.94 355.64,108.26 356.66,106.00 C357.92,103.22 361.36,99.84 364.68,98.12 C365.89,97.51 370.51,97.00 374.97,97.00 L 383.07,97.00 L 382.78,107.25 L 382.50,117.50 L 372.35,118.00 C364.08,118.41 361.79,118.87 359.97,120.50 C355.35,124.62 355.00,127.17 355.00,156.47 Z M 416.00 97.00 L 416.00,184.00 L 393.00,184.00 L 393.00,97.00 Z M 859.00 97.00 L 859.00,184.00 L 836.00,184.00 L 836.00,97.00 Z M 982.00 163.34 C987.45,165.67 995.66,165.37 1001.57,162.62 C1013.94,156.86 1019.32,141.30 1013.11,129.25 C1008.72,120.73 1000.90,115.99 991.28,116.01 C981.37,116.03 973.12,121.18 968.28,130.37 C965.88,134.92 966.14,145.40 968.77,150.50 C971.34,155.49 977.40,161.37 982.00,163.34 Z M 467.34 163.37 C480.40,168.00 494.31,161.80 499.00,149.26 C501.84,141.67 501.58,136.48 497.98,129.29 C493.43,120.18 486.34,115.99 475.51,116.01 C459.61,116.04 448.04,131.67 452.59,146.98 C454.56,153.61 461.46,161.28 467.34,163.37 Z M 568.91 162.51 C574.99,165.68 583.41,165.84 589.29,162.89 C613.14,150.94 606.05,116.00 579.77,116.00 C565.39,116.00 555.00,126.06 555.00,140.00 C555.00,143.33 555.62,147.55 556.37,149.35 C558.42,154.25 563.72,159.81 568.91,162.51 Z M 673.22 162.42 C689.13,170.35 707.92,158.77 707.97,141.00 C707.99,133.55 706.64,129.23 702.84,124.62 C694.41,114.40 678.08,113.11 667.86,121.85 C654.22,133.53 656.97,154.32 673.22,162.42 Z M 123.93 130.25 C124.60,132.31 125.48,134.00 125.87,134.00 C126.26,134.00 127.10,132.06 127.74,129.70 C130.36,119.89 140.90,108.19 152.50,102.22 L 157.50,99.65 L 150.00,97.18 C136.11,92.62 110.26,93.20 97.99,98.36 L 94.81,99.70 L 100.22,102.75 C111.34,109.03 120.45,119.59 123.93,130.25 Z M 91.10 155.73 C81.64,162.05 68.00,154.72 68.00,143.30 C68.00,134.56 74.47,128.00 83.08,128.00 C97.84,128.00 103.47,147.47 91.10,155.73 Z M 174.80 156.60 C166.37,160.98 154.95,154.65 153.34,144.69 C151.19,131.46 168.81,122.61 178.53,132.03 C186.11,139.38 184.25,151.68 174.80,156.60 Z M 410.95 87.52 C406.69,89.73 401.06,89.30 397.04,86.46 C392.63,83.35 391.08,80.51 391.04,75.50 C390.98,67.48 396.88,62.00 405.57,62.00 C409.66,62.00 410.72,62.48 414.12,65.88 C417.54,69.30 418.00,70.33 418.00,74.51 C418.00,80.12 415.17,85.34 410.95,87.52 Z M 854.09 87.45 C852.45,88.30 849.22,89.00 846.92,89.00 C843.31,89.00 842.13,88.40 838.37,84.63 C834.51,80.77 834.00,79.74 834.00,75.78 C834.00,70.70 837.03,65.30 841.03,63.28 C845.00,61.27 852.33,61.68 855.39,64.09 C863.31,70.32 862.60,83.05 854.09,87.45 Z M 1094.00 178.79 C1094.00,180.90 1093.52,181.57 1092.00,181.57 C1090.48,181.57 1090.00,180.90 1090.00,178.79 C1090.00,176.67 1090.48,176.00 1092.00,176.00 C1093.52,176.00 1094.00,176.67 1094.00,178.79 Z" />
</svg>