<?xml version="1.0" encoding="UTF-8"?>
<svg xmlns="http://www.w3.org/2000/svg" version="1.1" width="590px" height="234px" viewBox="0 0 590 234" style="shape-rendering:geometricPrecision; text-rendering:geometricPrecision; image-rendering:optimizeQuality; fill-rule:evenodd; clip-rule:evenodd">
<g><path style="opacity:1" fill="#ffffff" d="M 74.5,40.5 C 74.5,40.8333 74.5,41.1667 74.5,41.5C 74.2073,76.5175 74.5406,111.518 75.5,146.5C 75.1667,146.5 74.8333,146.5 74.5,146.5C 73.1712,111.069 73.1712,75.7357 74.5,40.5 Z"/></g>
<g><path style="opacity:1" fill="#ffffff" d="M 74.5,41.5 C 81.1667,41.5 87.8333,41.5 94.5,41.5C 93.8407,73.5176 94.5074,105.184 96.5,136.5C 96.9629,139.482 97.2962,142.482 97.5,145.5C 98.083,148.947 99.4163,151.947 101.5,154.5C 105.217,160.55 110.217,165.217 116.5,168.5C 118.936,169.871 121.603,170.871 124.5,171.5C 130.319,172.653 136.319,172.819 142.5,172C 143.056,171.617 143.389,171.117 143.5,170.5C 145.967,170.245 147.967,169.245 149.5,167.5C 150.605,166.4 151.938,165.733 153.5,165.5C 155.404,165.262 156.738,164.262 157.5,162.5C 158.864,160.809 160.197,159.142 161.5,157.5C 162.906,157.027 163.573,156.027 163.5,154.5C 163.953,152.435 164.953,150.768 166.5,149.5C 167.924,147.485 168.59,145.152 168.5,142.5C 169.472,108.858 169.806,75.1911 169.5,41.5C 176.5,41.5 183.5,41.5 190.5,41.5C 190.5,90.5 190.5,139.5 190.5,188.5C 183.5,188.5 176.5,188.5 169.5,188.5C 169.824,184.445 169.491,180.445 168.5,176.5C 166.479,177.855 164.812,179.521 163.5,181.5C 161.847,181.66 160.514,182.326 159.5,183.5C 157.973,183.427 156.973,184.094 156.5,185.5C 153.053,186.083 150.053,187.416 147.5,189.5C 137.56,191.634 127.56,191.967 117.5,190.5C 117.167,190.5 116.833,190.5 116.5,190.5C 114.485,189.076 112.152,188.41 109.5,188.5C 109.167,188.5 108.833,188.5 108.5,188.5C 108.027,187.094 107.027,186.427 105.5,186.5C 101.495,185.502 98.1612,183.502 95.5,180.5C 94.7377,178.738 93.4044,177.738 91.5,177.5C 84.4897,170.825 79.4897,162.825 76.5,153.5C 76.3259,151.139 75.9926,148.806 75.5,146.5C 74.5406,111.518 74.2073,76.5175 74.5,41.5 Z"/></g>
<g><path style="opacity:1" fill="#ffffff" d="M 169.5,41.5 C 176.982,40.508 184.648,40.1746 192.5,40.5C 192.5,90.1667 192.5,139.833 192.5,189.5C 184.833,189.5 177.167,189.5 169.5,189.5C 169.5,189.167 169.5,188.833 169.5,188.5C 176.5,188.5 183.5,188.5 190.5,188.5C 190.5,139.5 190.5,90.5 190.5,41.5C 183.5,41.5 176.5,41.5 169.5,41.5 Z"/></g>
<g><path style="opacity:1" fill="#ffffff" d="M 229.5,40.5 C 229.167,58.1792 229.5,75.8459 230.5,93.5C 231.107,93.3764 231.44,93.0431 231.5,92.5C 233.555,90.4453 235.888,88.7787 238.5,87.5C 240.027,87.573 241.027,86.9063 241.5,85.5C 242.514,84.3263 243.847,83.6596 245.5,83.5C 249.395,82.5376 253.061,81.2043 256.5,79.5C 263.131,78.669 269.798,78.3357 276.5,78.5C 278.952,79.0654 281.285,79.7321 283.5,80.5C 285.515,81.9238 287.848,82.5905 290.5,82.5C 291.671,83.3446 293.005,84.0113 294.5,84.5C 294.973,85.9063 295.973,86.573 297.5,86.5C 305.924,91.3847 312.591,98.0514 317.5,106.5C 317.755,108.967 318.755,110.967 320.5,112.5C 321.338,112.842 321.672,113.508 321.5,114.5C 321.796,116.403 322.463,118.07 323.5,119.5C 324.038,126.822 324.371,134.155 324.5,141.5C 324.806,144.385 324.473,147.052 323.5,149.5C 322.463,150.93 321.796,152.597 321.5,154.5C 321.598,156.553 320.931,158.22 319.5,159.5C 318.326,160.514 317.66,161.847 317.5,163.5C 315.167,166.833 312.833,170.167 310.5,173.5C 307.833,175.5 305.5,177.833 303.5,180.5C 298.833,182.833 294.167,185.167 289.5,187.5C 287.447,187.402 285.78,188.069 284.5,189.5C 282.565,190.15 280.565,190.483 278.5,190.5C 269.818,190.479 261.152,190.146 252.5,189.5C 252.167,189.5 251.833,189.5 251.5,189.5C 249.824,187.166 247.491,186.166 244.5,186.5C 243.833,186.167 243.167,185.833 242.5,185.5C 242.027,184.094 241.027,183.427 239.5,183.5C 236.883,182.214 234.55,180.547 232.5,178.5C 232.027,177.094 231.027,176.427 229.5,176.5C 228.517,180.298 228.183,184.298 228.5,188.5C 221.833,188.5 215.167,188.5 208.5,188.5C 208.5,139.167 208.5,89.8333 208.5,40.5C 215.5,40.5 222.5,40.5 229.5,40.5 Z"/></g>
<g><path style="opacity:1" fill="#ffffff" d="M 374.5,80.5 C 385.19,80.3215 395.857,80.6548 406.5,81.5C 409.426,82.6976 412.426,83.6976 415.5,84.5C 415.973,85.9063 416.973,86.573 418.5,86.5C 421.598,88.4161 424.598,90.5828 427.5,93C 430.43,95.758 432.763,98.9247 434.5,102.5C 434.427,104.027 435.094,105.027 436.5,105.5C 436.34,107.199 436.506,108.866 437,110.5C 439.497,113.915 441.331,117.581 442.5,121.5C 443.423,128.109 443.756,134.776 443.5,141.5C 414.167,141.5 384.833,141.5 355.5,141.5C 355.216,143.415 355.549,145.081 356.5,146.5C 356.166,149.491 357.166,151.824 359.5,153.5C 362.374,158.95 366.374,163.283 371.5,166.5C 373.121,168.942 375.454,170.275 378.5,170.5C 380.579,170.971 382.579,171.637 384.5,172.5C 386.81,173.164 389.31,173.497 392,173.5C 395.805,173.696 399.305,173.03 402.5,171.5C 406.237,170.134 409.904,168.467 413.5,166.5C 415.749,165.92 417.415,164.587 418.5,162.5C 419.295,159.186 421.295,157.686 424.5,158C 429.482,160.988 433.815,164.655 437.5,169C 433.23,175.108 427.897,179.941 421.5,183.5C 419.973,183.427 418.973,184.094 418.5,185.5C 415.828,186.501 413.162,187.501 410.5,188.5C 407.772,188.171 405.438,188.837 403.5,190.5C 395.826,191.793 388.159,191.793 380.5,190.5C 375.243,188.841 369.91,187.174 364.5,185.5C 364.027,184.094 363.027,183.427 361.5,183.5C 358.63,182.567 356.296,180.9 354.5,178.5C 353.415,176.413 351.749,175.08 349.5,174.5C 347.471,172.142 345.471,169.808 343.5,167.5C 343.573,165.973 342.906,164.973 341.5,164.5C 340.695,162.085 339.695,159.751 338.5,157.5C 338.573,155.973 337.906,154.973 336.5,154.5C 335.941,150.147 335.275,145.814 334.5,141.5C 334.334,136.156 334.501,130.823 335,125.5C 336.406,121.969 337.24,118.302 337.5,114.5C 337.5,114.167 337.5,113.833 337.5,113.5C 338.906,113.027 339.573,112.027 339.5,110.5C 339.877,108.742 340.544,107.075 341.5,105.5C 343.281,102.909 345.281,100.575 347.5,98.5C 349.833,96.8333 351.833,94.8333 353.5,92.5C 354.911,90.086 356.911,88.4194 359.5,87.5C 361.027,87.573 362.027,86.9063 362.5,85.5C 363.514,84.3263 364.847,83.6596 366.5,83.5C 369.397,82.871 372.064,81.871 374.5,80.5 Z"/></g>
<g><path style="opacity:1" fill="#ffffff" d="M 276.5,98.5 C 279.053,100.584 282.053,101.917 285.5,102.5C 286.5,103.167 287.5,103.833 288.5,104.5C 288.973,105.906 289.973,106.573 291.5,106.5C 293.885,108.884 295.885,111.55 297.5,114.5C 297.427,116.027 298.094,117.027 299.5,117.5C 300.983,120.433 302.317,123.433 303.5,126.5C 303.64,132.536 303.307,138.536 302.5,144.5C 300.006,154.48 294.339,162.146 285.5,167.5C 283.326,167.75 281.659,168.75 280.5,170.5C 280.167,170.5 279.833,170.5 279.5,170.5C 270.824,173.117 262.157,173.117 253.5,170.5C 252.391,170.443 251.391,170.11 250.5,169.5C 250.027,168.094 249.027,167.427 247.5,167.5C 242.473,164.473 238.473,160.473 235.5,155.5C 235.573,153.973 234.906,152.973 233.5,152.5C 233.443,151.391 233.11,150.391 232.5,149.5C 231.629,146.888 230.963,144.221 230.5,141.5C 230.303,135.455 230.637,129.455 231.5,123.5C 232.745,117.326 235.745,112.326 240.5,108.5C 242.749,107.92 244.415,106.587 245.5,104.5C 246.29,103.599 247.29,102.932 248.5,102.5C 251.157,102.065 253.491,101.065 255.5,99.5C 258.55,98.0648 261.883,97.3981 265.5,97.5C 269.18,97.7788 272.847,98.1121 276.5,98.5 Z"/></g>
<g><path style="opacity:1" fill="#ffffff" d="M 402.5,100.5 C 410.605,103.693 416.271,109.36 419.5,117.5C 420.219,119.764 420.552,122.097 420.5,124.5C 399.5,124.5 378.5,124.5 357.5,124.5C 357.5,123.167 357.5,121.833 357.5,120.5C 357.948,117.318 359.282,114.651 361.5,112.5C 363.262,111.738 364.262,110.404 364.5,108.5C 366.749,107.92 368.415,106.587 369.5,104.5C 369.833,103.5 370.5,102.833 371.5,102.5C 373.027,102.573 374.027,101.906 374.5,100.5C 383.815,98.1139 393.148,98.1139 402.5,100.5 Z"/></g>
<g><path style="opacity:1" fill="#ffffff" d="M 479.5,91.5 C 481.233,87.4351 484.233,84.7684 488.5,83.5C 490.833,82.8333 493.167,82.1667 495.5,81.5C 500.167,81.5 504.833,81.5 509.5,81.5C 509.5,87.5 509.5,93.5 509.5,99.5C 504.821,99.3342 500.155,99.5008 495.5,100C 494.584,100.278 493.918,100.778 493.5,101.5C 489.108,102.359 485.775,104.693 483.5,108.5C 482.094,108.973 481.427,109.973 481.5,111.5C 478.819,114.192 477.486,117.525 477.5,121.5C 477.5,121.833 477.5,122.167 477.5,122.5C 476.503,144.327 476.169,166.327 476.5,188.5C 469.833,188.5 463.167,188.5 456.5,188.5C 456.5,152.833 456.5,117.167 456.5,81.5C 463.167,81.5 469.833,81.5 476.5,81.5C 476.176,85.5546 476.509,89.5546 477.5,93.5C 478.522,93.1445 479.189,92.4778 479.5,91.5 Z"/></g>
</svg>
